<svg class="svg-icon" style="width: 1em;height: 1em;vertical-align: middle;fill: currentColor;overflow: hidden;" viewBox="0 0 1024 1024" version="1.1" xmlns="http://www.w3.org/2000/svg"><path d="M154.840615 741.824985c-21.661538 0-39.384615 17.723077-39.384615 39.384615V827.076923c0 21.661538 17.723077 39.384615 39.384615 39.384615h39.384616c21.661538 0 39.384615-17.723077 39.384615-39.384615v-45.867323c0-21.661538-17.723077-39.384615-39.384615-39.384615h-39.384616zM848.750277 741.824985c-21.661538 0-39.384615 17.723077-39.384615 39.384615V827.076923c0 21.661538 17.723077 39.384615 39.384615 39.384615h39.384615c21.661538 0 39.384615-17.723077 39.384616-39.384615v-45.867323c0-21.661538-17.723077-39.384615-39.384616-39.384615h-39.384615z" fill="#B0A7F7" /><path d="M941.627077 466.317785l9.527138 0.007877c27.1872 0 49.230769-22.043569 49.23077-49.23077s-22.043569-49.230769-49.23077-49.230769c-0.027569 0-8.101415 0-20.153107-0.027569l-0.783754 0.003938c-29.652677 0.405662-53.952985 0.366277-75.606646-0.141784-19.731692-72.731569-42.421169-154.730338-114.652554-206.588062-44.807877-33.248492-110.083938-33.110646-157.495139-33.027938a6960.009846 6960.009846 0 0 0-20.649353-0.066954l-120.2688-0.015754c-56.839877 0-127.578585 0-175.426954 31.8976-0.441108 0.295385-0.878277 0.594708-1.30757 0.901908C191.688862 213.031385 172.823631 293.045169 160.760123 368.061046c-28.207262 0.126031-58.104123 0.039385-87.3984-0.267815h-0.527754c-26.946954 0-48.935385 21.704862-49.218954 48.714831-0.283569 27.1872 21.523692 49.4592 48.714831 49.742769 3.335877 0.035446 6.703262 0.047262 10.050954 0.078769-36.895508 34.638769-58.738215 83.156677-58.738215 134.281846 0 103.798154 78.714092 185.107692 179.2 185.107692h638.030769c96.897969 0 159.507692-72.656738 159.507692-185.107692 0-51.121231-21.846646-99.650954-58.753969-134.293661z m-100.753723 220.939815h-638.030769c-46.781046 0-80.738462-36.438646-80.738462-86.646154 0-30.385231 16.805415-58.990277 43.854769-74.6496a89.442462 89.442462 0 0 1 21.177108-8.861538c2.953846-0.807385 5.742277-1.898338 8.404677-3.182277 22.366523-0.433231 42.310892-16.139815 47.163077-38.955323 2.6624-12.524308 4.895508-25.182523 6.947446-37.773785a48.955077 48.955077 0 0 0 4.080246-26.080492l0.397785-2.595446c10.8032-71.294031 20.141292-132.907323 67.186215-167.069539 23.437785-14.981908 81.620677-14.981908 120.229416-14.981908h113.707323l6.329107 0.015754c6.884431 0.015754 13.674338 0.031508 20.700554 0.066954 30.133169-0.063015 80.600615-0.157538 99.079877 13.701908 0.303262 0.228431 0.610462 0.452923 0.9216 0.677415 44.547938 31.818831 60.679877 91.297477 77.760985 154.269539 1.823508 6.715077 3.658831 13.481354 5.541415 20.2752H324.934892c-27.1872 0-49.230769 22.039631-49.230769 49.230769 0 27.1872 22.043569 49.230769 49.230769 49.230769h503.536246c2.6624 1.28 5.458708 2.370954 8.408616 3.178339a89.403077 89.403077 0 0 1 21.188923 8.849723c27.049354 15.6672 43.854769 44.272246 43.854769 74.653538-0.003938 39.5264-10.5984 86.646154-61.050092 86.646154z" fill="#594BC8" /><path d="M817.242585 655.753846h-55.138462c-27.1872 0-49.230769-22.043569-49.230769-49.230769s22.043569-49.230769 49.230769-49.230769h55.138462c27.1872 0 49.230769 22.043569 49.230769 49.230769s-22.043569 49.230769-49.230769 49.230769zM261.919508 655.753846h-55.138462c-27.1872 0-49.230769-22.043569-49.230769-49.230769s22.043569-49.230769 49.230769-49.230769h55.138462c27.1872 0 49.230769 22.043569 49.230769 49.230769s-22.043569 49.230769-49.230769 49.230769z" fill="#B0A7F7" /></svg>