<svg width="66" height="49" viewBox="0 0 66 49" fill="none" xmlns="http://www.w3.org/2000/svg">
<path d="M8.43363 39.9863C6.97402 39.9863 5.77979 41.1805 5.77979 42.6401V45.7308C5.77979 47.1904 6.97402 48.3846 8.43363 48.3846H11.0875C12.5471 48.3846 13.7413 47.1904 13.7413 45.7308V42.6401C13.7413 41.1805 12.5471 39.9863 11.0875 39.9863H8.43363V39.9863ZM55.1912 39.9863C53.7316 39.9863 52.5374 41.1805 52.5374 42.6401V45.7308C52.5374 47.1904 53.7316 48.3846 55.1912 48.3846H57.8451C59.3047 48.3846 60.4989 47.1904 60.4989 45.7308V42.6401C60.4989 41.1805 59.3047 39.9863 57.8451 39.9863H55.1912V39.9863Z" fill="#5ABC7A" fill-opacity="0.27"/>
<path d="M61.8584 22.7968L62.5004 22.7973C64.3323 22.7973 65.8177 21.312 65.8177 19.48C65.8177 17.6481 64.3323 16.1627 62.5004 16.1627C62.4985 16.1627 61.9545 16.1627 61.1424 16.1609L61.0896 16.1611C59.0915 16.1885 57.4541 16.1858 55.995 16.1516C54.6654 11.2507 53.1366 5.72541 48.2694 2.23109C45.2501 -0.00928884 40.8516 -3.6147e-07 37.6569 0.00557274C37.1931 0.00338086 36.7293 0.00187691 36.2655 0.00106108L28.1615 0C24.3314 0 19.5649 -1.28523e-07 16.3407 2.14935C16.311 2.16925 16.2815 2.18942 16.2526 2.21012C11.3255 5.72965 10.0543 11.1212 9.24141 16.176C7.34072 16.1845 5.32619 16.1786 3.35226 16.1579H3.3167C1.50093 16.1579 0.0192919 17.6205 0.000184256 19.4405C-0.0189234 21.2724 1.45051 22.7732 3.28273 22.7923C3.50751 22.7947 3.73441 22.7955 3.95999 22.7976C1.47386 25.1317 0.00204205 28.4009 0.00204205 31.8459C0.00204205 38.8401 5.30602 44.319 12.077 44.319H55.0693C61.5986 44.319 65.8174 39.4232 65.8174 31.8459C65.8174 28.4012 64.3453 25.1311 61.8584 22.7968V22.7968ZM55.0693 37.6844H12.077C8.9248 37.6844 6.63666 35.229 6.63666 31.8459C6.63666 29.7984 7.76905 27.871 9.59172 26.8158C10.0397 26.5563 10.5194 26.3556 11.0187 26.2187C11.2177 26.1643 11.4056 26.0908 11.585 26.0042C13.0921 25.975 14.436 24.9167 14.763 23.3793C14.9424 22.5354 15.0929 21.6825 15.2311 20.834C15.482 20.2845 15.5771 19.6766 15.5061 19.0766L15.5329 18.9018C16.2608 14.0978 16.8901 9.94608 20.0601 7.64414C21.6394 6.63462 25.5599 6.63461 28.1615 6.63461H35.8234L36.2499 6.63568C36.7138 6.63674 37.1713 6.6378 37.6447 6.64019C39.6752 6.63594 43.0758 6.62957 44.321 7.56346C44.3414 7.57885 44.3621 7.59398 44.3831 7.60911C47.3849 9.75315 48.4719 13.761 49.6229 18.0042C49.7457 18.4567 49.8694 18.9126 49.9963 19.3704H20.304C18.472 19.3704 16.9867 20.8555 16.9867 22.6877C16.9867 24.5197 18.472 26.005 20.304 26.005H54.2337C54.4131 26.0913 54.6015 26.1648 54.8002 26.2192C55.2998 26.3558 55.7797 26.5562 56.228 26.8155C58.0507 27.8712 59.1831 29.7987 59.1831 31.8459C59.1828 34.5093 58.4689 37.6844 55.0693 37.6844V37.6844Z" fill="#5ABC7A"/>
<path d="M53.0681 34.1865H49.3527C47.5208 34.1865 46.0354 32.7012 46.0354 30.8692C46.0354 29.0373 47.5208 27.5519 49.3527 27.5519H53.0681C54.9001 27.5519 56.3854 29.0373 56.3854 30.8692C56.3854 32.7012 54.9001 34.1865 53.0681 34.1865ZM15.6489 34.1865H11.9335C10.1016 34.1865 8.61621 32.7012 8.61621 30.8692C8.61621 29.0373 10.1016 27.5519 11.9335 27.5519H15.6489C17.4809 27.5519 18.9662 29.0373 18.9662 30.8692C18.9662 32.7012 17.4809 34.1865 15.6489 34.1865Z" fill="#5ABC7A" fill-opacity="0.27"/>
</svg>
