<svg width="68" height="68" viewBox="0 0 68 68" fill="none" xmlns="http://www.w3.org/2000/svg">
<rect width="68" height="68" rx="34" fill="#171717"/>
<path fill-rule="evenodd" clip-rule="evenodd" d="M42.6228 39.6534C42.2996 40.4 41.9171 41.0872 41.4738 41.719C40.8697 42.5804 40.3751 43.1766 39.9938 43.5077C39.4029 44.0512 38.7698 44.3295 38.0918 44.3453C37.605 44.3453 37.018 44.2068 36.3348 43.9259C35.6492 43.6462 35.0192 43.5077 34.4432 43.5077C33.8391 43.5077 33.1912 43.6462 32.4981 43.9259C31.804 44.2068 31.2449 44.3532 30.8174 44.3677C30.1672 44.3954 29.5191 44.1092 28.8723 43.5077C28.4594 43.1476 27.943 42.5303 27.3243 41.6557C26.6606 40.7218 26.1149 39.6389 25.6874 38.4042C25.2295 37.0707 25 35.7793 25 34.5291C25 33.097 25.3095 31.8618 25.9293 30.8267C26.4164 29.9953 27.0645 29.3395 27.8756 28.858C28.6867 28.3765 29.5631 28.1312 30.5068 28.1155C31.0233 28.1155 31.7005 28.2752 32.542 28.5892C33.3812 28.9042 33.9201 29.0639 34.1563 29.0639C34.3329 29.0639 34.9315 28.8771 35.9463 28.5048C36.9059 28.1594 37.7158 28.0164 38.3793 28.0728C40.1772 28.2179 41.5279 28.9266 42.4262 30.2034C40.8183 31.1777 40.0229 32.5423 40.0387 34.2928C40.0532 35.6563 40.5479 36.791 41.52 37.6919C41.9606 38.1101 42.4526 38.4332 43 38.6628C42.8813 39.007 42.756 39.3368 42.6228 39.6534ZM38.4993 23.4275C38.4993 24.4962 38.1089 25.4941 37.3307 26.4177C36.3915 27.5157 35.2555 28.1502 34.0236 28.0501C34.0079 27.9219 33.9988 27.7869 33.9988 27.6451C33.9988 26.6191 34.4455 25.5212 35.2386 24.6234C35.6346 24.1688 36.1382 23.7909 36.7489 23.4894C37.3584 23.1924 37.9348 23.0281 38.4769 23C38.4928 23.1429 38.4993 23.2858 38.4993 23.4275V23.4275Z" fill="white"/>
</svg>
