<svg width="85" height="85" viewBox="0 0 85 85" fill="none" xmlns="http://www.w3.org/2000/svg">
<path d="M69.9709 49.5326L61.6329 47.3262C58.7884 58.0752 47.7782 64.4775 37.0292 61.6331C26.2801 58.7886 19.8777 47.7784 22.7222 37.0294C24.8907 28.8348 31.805 23.1664 39.7313 22.1954L38.683 13.6316C27.3657 15.0172 17.486 23.1013 14.3916 34.7951C10.3243 50.1648 19.4808 65.9112 34.8227 69.9711C50.1554 74.0285 65.892 64.8855 69.9709 49.5326Z" fill="#5ABC7A"/>
<path d="M49.4732 14.3688L49.5915 14.4001C49.5718 14.3949 49.5521 14.3896 49.5324 14.3844C49.5126 14.3792 49.4929 14.374 49.4732 14.3688Z" fill="#5ABC7A"/>
</svg>
