<svg width="94" height="60" viewBox="0 0 94 60" fill="none" xmlns="http://www.w3.org/2000/svg">
<path d="M35.0519 53L34.4074 51.1299H31.7218L31.0724 53H29.9494L32.4933 45.9541H33.6701L36.214 53H35.0519ZM33.0255 47.2334L32.0002 50.2119H34.1291L33.1086 47.2334H33.0255ZM41.2914 49.4209H40.2709C40.2058 49.1507 40.0642 48.9326 39.8461 48.7666C39.6312 48.6006 39.3546 48.5176 39.016 48.5176C38.5766 48.5176 38.2299 48.6771 37.976 48.9961C37.7253 49.3151 37.6 49.7578 37.6 50.3242C37.6 50.8971 37.7253 51.348 37.976 51.6768C38.2299 52.0023 38.5766 52.165 39.016 52.165C39.3513 52.165 39.6264 52.0902 39.8412 51.9404C40.0593 51.7907 40.2025 51.5742 40.2709 51.291H41.2914C41.223 51.8379 40.9887 52.2773 40.5883 52.6094C40.1879 52.9382 39.6654 53.1025 39.0209 53.1025C38.2462 53.1025 37.6358 52.8568 37.1898 52.3652C36.7471 51.8704 36.5258 51.1901 36.5258 50.3242C36.5258 49.4714 36.7471 48.8008 37.1898 48.3125C37.6326 47.8242 38.2413 47.5801 39.016 47.5801C39.6638 47.5801 40.1863 47.7493 40.5834 48.0879C40.9838 48.4264 41.2198 48.8708 41.2914 49.4209ZM42.7018 46.3594H43.7516V47.707H44.9039V48.5908H43.7516V51.3252C43.7516 51.6019 43.8118 51.8053 43.9323 51.9355C44.0527 52.0625 44.2431 52.126 44.5036 52.126C44.6077 52.126 44.7412 52.1178 44.9039 52.1016V52.9756C44.6956 53.0114 44.5052 53.0293 44.3327 53.0293C43.75 53.0293 43.3317 52.9186 43.0778 52.6973C42.8271 52.4759 42.7018 52.1081 42.7018 51.5938V48.5908H41.8571V47.707H42.7018V46.3594ZM45.9188 53V47.6826H46.9637V53H45.9188ZM46.9247 46.5693C46.7977 46.6898 46.6366 46.75 46.4413 46.75C46.246 46.75 46.0832 46.6898 45.953 46.5693C45.8261 46.4456 45.7626 46.2926 45.7626 46.1104C45.7626 45.9281 45.8261 45.7751 45.953 45.6514C46.0832 45.5277 46.246 45.4658 46.4413 45.4658C46.6366 45.4658 46.7977 45.5277 46.9247 45.6514C47.0549 45.7751 47.12 45.9281 47.12 46.1104C47.12 46.2926 47.0549 46.4456 46.9247 46.5693ZM52.7687 47.6826L50.8546 53H49.7267L47.8077 47.6826H48.9308L50.254 51.877H50.337L51.6554 47.6826H52.7687ZM53.6127 53V47.6826H54.6576V53H53.6127ZM54.6185 46.5693C54.4916 46.6898 54.3304 46.75 54.1351 46.75C53.9398 46.75 53.777 46.6898 53.6468 46.5693C53.5199 46.4456 53.4564 46.2926 53.4564 46.1104C53.4564 45.9281 53.5199 45.7751 53.6468 45.6514C53.777 45.5277 53.9398 45.4658 54.1351 45.4658C54.3304 45.4658 54.4916 45.5277 54.6185 45.6514C54.7487 45.7751 54.8138 45.9281 54.8138 46.1104C54.8138 46.2926 54.7487 46.4456 54.6185 46.5693ZM56.3316 46.3594H57.3814V47.707H58.5338V48.5908H57.3814V51.3252C57.3814 51.6019 57.4417 51.8053 57.5621 51.9355C57.6826 52.0625 57.873 52.126 58.1334 52.126C58.2376 52.126 58.371 52.1178 58.5338 52.1016V52.9756C58.3255 53.0114 58.135 53.0293 57.9625 53.0293C57.3798 53.0293 56.9615 52.9186 56.7076 52.6973C56.457 52.4759 56.3316 52.1081 56.3316 51.5938V48.5908H55.4869V47.707H56.3316V46.3594ZM60.0565 54.9287C59.8742 54.9287 59.7293 54.9206 59.6219 54.9043V54.001C59.6968 54.014 59.8107 54.0205 59.9637 54.0205C60.2144 54.0205 60.4146 53.9635 60.5643 53.8496C60.714 53.7357 60.8345 53.5452 60.9256 53.2783L61.0037 53.0195L59.0799 47.6826H60.2225L61.5555 51.9062H61.6385L62.9666 47.6826H64.0799L62.0975 53.2197C61.8696 53.8643 61.6076 54.3102 61.3114 54.5576C61.0184 54.805 60.6001 54.9287 60.0565 54.9287Z" fill="#686868"/>
<path fill-rule="evenodd" clip-rule="evenodd" d="M45.4887 12.25C39.2787 12.25 34.25 17.29 34.25 23.5C34.25 29.71 39.2787 34.75 45.4887 34.75C51.71 34.75 56.75 29.71 56.75 23.5C56.75 17.29 51.71 12.25 45.4887 12.25ZM45.5 32.5C40.5275 32.5 36.5 28.4725 36.5 23.5C36.5 18.5275 40.5275 14.5 45.5 14.5C50.4725 14.5 54.5 18.5275 54.5 23.5C54.5 28.4725 50.4725 32.5 45.5 32.5ZM45.2525 17.875H45.185C44.735 17.875 44.375 18.235 44.375 18.685V23.995C44.375 24.3888 44.5775 24.76 44.9263 24.9625L49.595 27.7638C49.9775 27.9888 50.4725 27.8763 50.6975 27.4938C50.9338 27.1113 50.81 26.605 50.4163 26.38L46.0625 23.7925V18.685C46.0625 18.235 45.7025 17.875 45.2525 17.875V17.875Z" fill="#686868"/>
</svg>
