<svg width="24" height="98" viewBox="0 0 24 98" fill="none" xmlns="http://www.w3.org/2000/svg">
<path d="M21 84C21 91 12 97 12 97C12 97 3 91 3 84C3 81.6131 3.94821 79.3239 5.63604 77.636C7.32387 75.9482 9.61305 75 12 75C14.3869 75 16.6761 75.9482 18.364 77.636C20.0518 79.3239 21 81.6131 21 84Z" stroke="#212121" stroke-width="2" stroke-linecap="round" stroke-linejoin="round"/>
<path d="M12 87C13.6569 87 15 85.6569 15 84C15 82.3431 13.6569 81 12 81C10.3431 81 9 82.3431 9 84C9 85.6569 10.3431 87 12 87Z" stroke="#212121" stroke-width="2" stroke-linecap="round" stroke-linejoin="round"/>
<path fill-rule="evenodd" clip-rule="evenodd" d="M12 7C9.79 7 8 8.79 8 11C8 13.21 9.79 15 12 15C14.21 15 16 13.21 16 11C16 8.79 14.21 7 12 7ZM20.94 10C20.48 5.83 17.17 2.52 13 2.06V1C13 0.45 12.55 0 12 0C11.45 0 11 0.45 11 1V2.06C6.83 2.52 3.52 5.83 3.06 10H2C1.45 10 1 10.45 1 11C1 11.55 1.45 12 2 12H3.06C3.52 16.17 6.83 19.48 11 19.94V21C11 21.55 11.45 22 12 22C12.55 22 13 21.55 13 21V19.94C17.17 19.48 20.48 16.17 20.94 12H22C22.55 12 23 11.55 23 11C23 10.45 22.55 10 22 10H20.94ZM12 18C8.13 18 5 14.87 5 11C5 7.13 8.13 4 12 4C15.87 4 19 7.13 19 11C19 14.87 15.87 18 12 18Z" fill="#5360E2"/>
<rect x="10.9517" y="31.1614" width="1.3871" height="34.6774" fill="#5360E2"/>
<path fill-rule="evenodd" clip-rule="evenodd" d="M11.6452 35.3226C13.9434 35.3226 15.8065 33.4595 15.8065 31.1613C15.8065 28.8631 13.9434 27 11.6452 27C9.34696 27 7.48389 28.8631 7.48389 31.1613C7.48389 33.4595 9.34696 35.3226 11.6452 35.3226Z" fill="#5360E2"/>
<path fill-rule="evenodd" clip-rule="evenodd" d="M11.6453 33.9354C13.1774 33.9354 14.4195 32.6934 14.4195 31.1612C14.4195 29.6291 13.1774 28.3871 11.6453 28.3871C10.1131 28.3871 8.87109 29.6291 8.87109 31.1612C8.87109 32.6934 10.1131 33.9354 11.6453 33.9354Z" fill="#111111"/>
<path fill-rule="evenodd" clip-rule="evenodd" d="M11.6452 70C13.9434 70 15.8065 68.137 15.8065 65.8387C15.8065 63.5405 13.9434 61.6775 11.6452 61.6775C9.34696 61.6775 7.48389 63.5405 7.48389 65.8387C7.48389 68.137 9.34696 70 11.6452 70Z" fill="#373738"/>
<path fill-rule="evenodd" clip-rule="evenodd" d="M11.6453 68.6129C13.1774 68.6129 14.4195 67.3708 14.4195 65.8387C14.4195 64.3066 13.1774 63.0645 11.6453 63.0645C10.1131 63.0645 8.87109 64.3066 8.87109 65.8387C8.87109 67.3708 10.1131 68.6129 11.6453 68.6129Z" fill="#111111"/>
</svg>
