<svg width="94" height="60" viewBox="0 0 94 60" fill="none" xmlns="http://www.w3.org/2000/svg">
<path d="M39.8893 53H38.8004V49.9092H35.1823V53H34.0885V45.9541H35.1823V48.9131H38.8004V45.9541H39.8893V53ZM43.5409 53.1025C42.7597 53.1025 42.146 52.8568 41.7001 52.3652C41.2541 51.8737 41.0311 51.1982 41.0311 50.3389C41.0311 49.4827 41.2541 48.8089 41.7001 48.3174C42.1493 47.8258 42.7629 47.5801 43.5409 47.5801C44.3156 47.5801 44.926 47.8258 45.372 48.3174C45.8212 48.8089 46.0458 49.4827 46.0458 50.3389C46.0458 51.1982 45.8228 51.8737 45.3768 52.3652C44.9309 52.8568 44.3189 53.1025 43.5409 53.1025ZM43.5409 52.1699C43.9934 52.1699 44.3433 52.0104 44.5907 51.6914C44.8414 51.3691 44.9667 50.9183 44.9667 50.3389C44.9667 49.7627 44.8414 49.3151 44.5907 48.9961C44.3433 48.6738 43.9934 48.5127 43.5409 48.5127C43.0852 48.5127 42.7336 48.6722 42.4862 48.9912C42.2388 49.3102 42.1151 49.7594 42.1151 50.3389C42.1151 50.9215 42.2388 51.3724 42.4862 51.6914C42.7336 52.0104 43.0852 52.1699 43.5409 52.1699ZM47.0704 53V47.6826H48.0812V48.5371H48.1593C48.2765 48.2344 48.4637 48 48.7208 47.834C48.9812 47.6647 49.2872 47.5801 49.6388 47.5801C49.9936 47.5801 50.2963 47.6647 50.547 47.834C50.7976 48.0033 50.9832 48.2376 51.1036 48.5371H51.1866C51.3234 48.2441 51.5349 48.0114 51.8214 47.8389C52.1111 47.6663 52.4383 47.5801 52.8029 47.5801C53.34 47.5801 53.7566 47.7347 54.0529 48.0439C54.3523 48.3532 54.5021 48.7845 54.5021 49.3379V53H53.4523V49.6113C53.4523 48.8984 53.1088 48.542 52.422 48.542C52.0867 48.542 51.8149 48.6478 51.6066 48.8594C51.4015 49.071 51.2989 49.3363 51.2989 49.6553V53H50.2687V49.5088C50.2687 49.2093 50.1759 48.9733 49.9904 48.8008C49.8048 48.6283 49.5558 48.542 49.2433 48.542C48.9243 48.542 48.6573 48.6576 48.4425 48.8887C48.2277 49.1198 48.1202 49.4062 48.1202 49.748V53H47.0704ZM58.8519 48.8496C58.6175 48.599 58.3067 48.4736 57.9193 48.4736C57.5319 48.4736 57.2129 48.599 56.9623 48.8496C56.7116 49.1003 56.5716 49.4339 56.5423 49.8506H59.2279C59.2149 49.4307 59.0895 49.097 58.8519 48.8496ZM59.223 51.5645H60.2337C60.1133 52.043 59.8496 52.4189 59.4427 52.6924C59.0391 52.9658 58.5345 53.1025 57.9291 53.1025C57.1673 53.1025 56.5668 52.8584 56.1273 52.3701C55.6911 51.8786 55.473 51.208 55.473 50.3584C55.473 49.5088 55.6944 48.8333 56.1371 48.332C56.5798 47.8307 57.1755 47.5801 57.9242 47.5801C58.6631 47.5801 59.2425 47.8177 59.6625 48.293C60.0856 48.7682 60.2972 49.4242 60.2972 50.2607V50.627H56.5423V50.6855C56.5586 51.1543 56.6937 51.5254 56.9476 51.7988C57.2015 52.0723 57.5384 52.209 57.9584 52.209C58.5996 52.209 59.0212 51.9941 59.223 51.5645Z" fill="#5360E2"/>
<path d="M38 22.4454C38 20.9025 38.7124 19.4459 39.9303 18.4987L43.9303 15.3875C45.7359 13.9832 48.2642 13.9832 50.0697 15.3875L54.0697 18.4987C55.2876 19.4459 56 20.9025 56 22.4454V31C56 31.5304 55.7893 32.0391 55.4142 32.4142C55.0391 32.7893 54.5304 33 54 33H40C39.4696 33 38.9609 32.7893 38.5858 32.4142C38.2107 32.0391 38 31.5304 38 31V22.4454Z" stroke="#5360E2" stroke-width="2" stroke-linecap="round" stroke-linejoin="round"/>
<path d="M44 33V26C44 24.3431 45.3431 23 47 23V23C48.6569 23 50 24.3431 50 26V33" stroke="#5360E2" stroke-width="2" stroke-linecap="round" stroke-linejoin="round"/>
</svg>
