<svg width="65" height="61" viewBox="0 0 65 61" fill="none" xmlns="http://www.w3.org/2000/svg">
<path d="M8.44882 52.5392C7.05417 52.5392 5.91309 53.6803 5.91309 55.0749V58.028C5.91309 59.4227 7.05417 60.5638 8.44882 60.5638H10.9846C12.3792 60.5638 13.5203 59.4227 13.5203 58.028V55.0749C13.5203 53.6803 12.3792 52.5392 10.9846 52.5392H8.44882V52.5392ZM53.1255 52.5392C51.7308 52.5392 50.5897 53.6803 50.5897 55.0749V58.028C50.5897 59.4227 51.7308 60.5638 53.1255 60.5638H55.6612C57.0559 60.5638 58.197 59.4227 58.197 58.028V55.0749C58.197 53.6803 57.0559 52.5392 55.6612 52.5392H53.1255V52.5392Z" fill="#5ABC7A" fill-opacity="0.27"/>
<path d="M59.1054 34.8009L59.7188 34.8014C61.4693 34.8014 62.8885 33.3821 62.8885 31.6317C62.8885 29.8813 61.4693 28.462 59.7188 28.462C59.7171 28.462 59.1972 28.462 58.4213 28.4603L58.3708 28.4605C56.4617 28.4866 54.8971 28.4841 53.503 28.4514C52.2326 23.7686 50.7717 18.4892 46.1212 15.1504C43.2363 13.0098 39.0336 13.0186 35.981 13.024C35.5379 13.0219 35.0947 13.0204 34.6515 13.0196L26.9082 13.0186C23.2486 13.0186 18.6941 13.0186 15.6135 15.0723C15.5851 15.0913 15.5569 15.1106 15.5293 15.1304C10.8214 18.4933 9.60682 23.6449 8.83012 28.4747C7.01403 28.4828 5.08915 28.4773 3.20307 28.4575H3.16909C1.43414 28.4575 0.0184334 29.8549 0.000176055 31.5939C-0.0180812 33.3443 1.38596 34.7783 3.13663 34.7966C3.35141 34.7988 3.56821 34.7996 3.78375 34.8016C1.40827 37.0318 0.00195117 40.1556 0.00195117 43.4472C0.00195117 50.1302 5.06988 55.3652 11.5396 55.3652H52.6185C58.8572 55.3652 62.8883 50.6873 62.8883 43.4472C62.8883 40.1558 61.4817 37.0313 59.1054 34.8009V34.8009ZM52.6185 49.0259H11.5396C8.52761 49.0259 6.3413 46.6798 6.3413 43.4472C6.3413 41.4909 7.4233 39.6492 9.16484 38.641C9.59294 38.393 10.0512 38.2013 10.5283 38.0705C10.7185 38.0185 10.898 37.9482 11.0694 37.8656C12.5095 37.8377 13.7936 36.8264 14.106 35.3575C14.2774 34.5511 14.4212 33.7361 14.5533 32.9254C14.793 32.4003 14.8838 31.8195 14.816 31.2463L14.8416 31.0792C15.5372 26.489 16.1384 22.5221 19.1673 20.3226C20.6763 19.358 24.4224 19.358 26.9082 19.358H34.2291L34.6366 19.359C35.0798 19.36 35.517 19.361 35.9694 19.3633C37.9095 19.3592 41.1588 19.3532 42.3485 20.2455C42.368 20.2602 42.3878 20.2746 42.4079 20.2891C45.276 22.3377 46.3147 26.1672 47.4144 30.2216C47.5318 30.6539 47.65 31.0896 47.7712 31.527H19.4003C17.6499 31.527 16.2307 32.946 16.2307 34.6967C16.2307 36.4471 17.6499 37.8663 19.4003 37.8663H51.82C51.9914 37.9487 52.1715 38.019 52.3614 38.071C52.8387 38.2015 53.2973 38.393 53.7256 38.6407C55.4672 39.6495 56.5492 41.4912 56.5492 43.4472C56.5489 45.9921 55.8668 49.0259 52.6185 49.0259V49.0259Z" fill="#5ABC7A"/>
<path d="M51.0971 46.9976H47.5471C45.7967 46.9976 44.3774 45.5783 44.3774 43.8279C44.3774 42.0775 45.7967 40.6582 47.5471 40.6582H51.0971C52.8476 40.6582 54.2668 42.0775 54.2668 43.8279C54.2668 45.5783 52.8476 46.9976 51.0971 46.9976ZM15.3432 46.9976H11.7932C10.0428 46.9976 8.62354 45.5783 8.62354 43.8279C8.62354 42.0775 10.0428 40.6582 11.7932 40.6582H15.3432C17.0937 40.6582 18.5129 42.0775 18.5129 43.8279C18.5129 45.5783 17.0937 46.9976 15.3432 46.9976Z" fill="#5ABC7A" fill-opacity="0.27"/>
<circle cx="48.6431" cy="15.7657" r="15.7657" fill="#171717"/>
<path fill-rule="evenodd" clip-rule="evenodd" d="M49.5863 2.46837C42.7736 2.46837 37.2568 7.9975 37.2568 14.8102C37.2568 21.6229 42.7736 27.152 49.5863 27.152C56.4113 27.152 61.9405 21.6229 61.9405 14.8102C61.9405 7.9975 56.4113 2.46837 49.5863 2.46837ZM49.5987 24.6836C44.1436 24.6836 39.7252 20.2653 39.7252 14.8102C39.7252 9.3551 44.1436 4.93673 49.5987 4.93673C55.0537 4.93673 59.4721 9.3551 59.4721 14.8102C59.4721 20.2653 55.0537 24.6836 49.5987 24.6836ZM49.3271 8.63928H49.2531C48.7594 8.63928 48.3645 9.03422 48.3645 9.52789V15.3532C48.3645 15.7852 48.5866 16.1925 48.9692 16.4146L54.0911 19.4877C54.5107 19.7346 55.0537 19.6112 55.3006 19.1915C55.5598 18.7719 55.424 18.2165 54.992 17.9697L50.2157 15.1311V9.52789C50.2157 9.03422 49.8208 8.63928 49.3271 8.63928V8.63928Z" fill="#5ABC7A"/>
<path d="M48.9692 16.4146L49.3551 15.7714L49.3458 15.766L48.9692 16.4146ZM54.0911 19.4877L53.7052 20.1309L53.7108 20.1342L54.0911 19.4877ZM55.3006 19.1915L54.6625 18.7974L54.6582 18.8043L54.6541 18.8113L55.3006 19.1915ZM54.992 17.9697L54.6088 18.6145L54.6199 18.6209L54.992 17.9697ZM50.2157 15.1311H49.4657V15.5578L49.8326 15.7758L50.2157 15.1311ZM49.5863 1.71837C42.3584 1.71837 36.5068 7.58427 36.5068 14.8102H38.0068C38.0068 8.41074 43.1888 3.21837 49.5863 3.21837V1.71837ZM36.5068 14.8102C36.5068 22.0361 42.3584 27.902 49.5863 27.902V26.402C43.1888 26.402 38.0068 21.2096 38.0068 14.8102H36.5068ZM49.5863 27.902C56.8251 27.902 62.6905 22.0376 62.6905 14.8102H61.1905C61.1905 21.2082 55.9976 26.402 49.5863 26.402V27.902ZM62.6905 14.8102C62.6905 7.5828 56.8251 1.71837 49.5863 1.71837V3.21837C55.9976 3.21837 61.1905 8.4122 61.1905 14.8102H62.6905ZM49.5987 23.9336C44.5578 23.9336 40.4752 19.8511 40.4752 14.8102H38.9752C38.9752 20.6795 43.7294 25.4336 49.5987 25.4336V23.9336ZM40.4752 14.8102C40.4752 9.76932 44.5578 5.68673 49.5987 5.68673V4.18673C43.7294 4.18673 38.9752 8.94089 38.9752 14.8102H40.4752ZM49.5987 5.68673C54.6395 5.68673 58.7221 9.76932 58.7221 14.8102H60.2221C60.2221 8.94089 55.468 4.18673 49.5987 4.18673V5.68673ZM58.7221 14.8102C58.7221 19.8511 54.6395 23.9336 49.5987 23.9336V25.4336C55.468 25.4336 60.2221 20.6795 60.2221 14.8102H58.7221ZM49.3271 7.88928H49.2531V9.38928H49.3271V7.88928ZM49.2531 7.88928C48.3452 7.88928 47.6145 8.62 47.6145 9.52789H49.1145C49.1145 9.44843 49.1736 9.38928 49.2531 9.38928V7.88928ZM47.6145 9.52789V15.3532H49.1145V9.52789H47.6145ZM47.6145 15.3532C47.6145 16.0413 47.9694 16.7013 48.5926 17.0632L49.3458 15.766C49.2039 15.6836 49.1145 15.529 49.1145 15.3532H47.6145ZM48.5833 17.0577L53.7052 20.1309L54.4769 18.8446L49.3551 15.7715L48.5833 17.0577ZM53.7108 20.1342C54.4645 20.5775 55.4769 20.371 55.947 19.5718L54.6541 18.8113C54.6397 18.8357 54.6181 18.8525 54.586 18.8602C54.5518 18.8683 54.5105 18.8643 54.4713 18.8413L53.7108 20.1342ZM55.9387 19.5857C56.4176 18.8102 56.1697 17.7788 55.3641 17.3185L54.6199 18.6209C54.6783 18.6542 54.7019 18.7336 54.6625 18.7974L55.9387 19.5857ZM55.3752 17.325L50.5989 14.4863L49.8326 15.7758L54.6089 18.6144L55.3752 17.325ZM50.9657 15.1311V9.52789H49.4657V15.1311H50.9657ZM50.9657 9.52789C50.9657 8.62 50.235 7.88928 49.3271 7.88928V9.38928C49.4066 9.38928 49.4657 9.44843 49.4657 9.52789H50.9657Z" fill="#5ABC7A"/>
</svg>
