<svg width="25" height="25" viewBox="0 0 25 25" fill="none" xmlns="http://www.w3.org/2000/svg">
<circle cx="12.3555" cy="12.6516" r="12" fill="#5ABC7A"/>
<path d="M17.3555 11.5607C17.3555 15.3788 12.3555 18.6516 12.3555 18.6516C12.3555 18.6516 7.35547 15.3788 7.35547 11.5607C7.35547 10.2587 7.88225 9.01004 8.81993 8.0894C9.75762 7.16877 11.0294 6.65157 12.3555 6.65157C13.6816 6.65157 14.9533 7.16877 15.891 8.0894C16.8287 9.01004 17.3555 10.2587 17.3555 11.5607Z" stroke="white" stroke-linecap="round" stroke-linejoin="round"/>
<path d="M12.3555 13.6516C13.46 13.6516 14.3555 12.7561 14.3555 11.6516C14.3555 10.547 13.46 9.65157 12.3555 9.65157C11.2509 9.65157 10.3555 10.547 10.3555 11.6516C10.3555 12.7561 11.2509 13.6516 12.3555 13.6516Z" stroke="white" stroke-linecap="round" stroke-linejoin="round"/>
</svg>
