<svg width="94" height="60" viewBox="0 0 94 60" fill="none" xmlns="http://www.w3.org/2000/svg">
<path d="M55 32V30C55 28.9391 54.5786 27.9217 53.8284 27.1716C53.0783 26.4214 52.0609 26 51 26H43C41.9391 26 40.9217 26.4214 40.1716 27.1716C39.4214 27.9217 39 28.9391 39 30V32" stroke="#686868" stroke-width="2" stroke-linecap="round" stroke-linejoin="round"/>
<path d="M47 22C49.2091 22 51 20.2091 51 18C51 15.7909 49.2091 14 47 14C44.7909 14 43 15.7909 43 18C43 20.2091 44.7909 22 47 22Z" stroke="#686868" stroke-width="2" stroke-linecap="round" stroke-linejoin="round"/>
<path d="M32.969 45.9541H35.7278C36.4179 45.9541 36.9778 46.1722 37.4075 46.6084C37.8372 47.0413 38.052 47.6061 38.052 48.3027C38.052 48.9896 37.8323 49.5495 37.3929 49.9824C36.9534 50.4121 36.387 50.627 35.6936 50.627H34.0628V53H32.969V45.9541ZM34.0628 46.9209V49.665H35.4397C35.9117 49.665 36.2779 49.5479 36.5384 49.3135C36.802 49.0758 36.9339 48.7389 36.9339 48.3027C36.9339 47.8568 36.8053 47.515 36.5481 47.2773C36.291 47.0397 35.9215 46.9209 35.4397 46.9209H34.0628ZM39.1011 53V47.6826H40.1118V48.498H40.19C40.2648 48.2344 40.4357 48.0179 40.7027 47.8486C40.9728 47.6794 41.2805 47.5947 41.6255 47.5947C41.8241 47.5947 41.9803 47.6094 42.0943 47.6387V48.6738C41.9673 48.6315 41.772 48.6104 41.5083 48.6104C41.1079 48.6104 40.7808 48.7259 40.5269 48.957C40.2762 49.1882 40.1509 49.4893 40.1509 49.8604V53H39.1011ZM44.9744 53.1025C44.1931 53.1025 43.5795 52.8568 43.1336 52.3652C42.6876 51.8737 42.4646 51.1982 42.4646 50.3389C42.4646 49.4827 42.6876 48.8089 43.1336 48.3174C43.5828 47.8258 44.1964 47.5801 44.9744 47.5801C45.7491 47.5801 46.3595 47.8258 46.8054 48.3174C47.2547 48.8089 47.4793 49.4827 47.4793 50.3389C47.4793 51.1982 47.2563 51.8737 46.8103 52.3652C46.3644 52.8568 45.7524 53.1025 44.9744 53.1025ZM44.9744 52.1699C45.4269 52.1699 45.7768 52.0104 46.0242 51.6914C46.2748 51.3691 46.4002 50.9183 46.4002 50.3389C46.4002 49.7627 46.2748 49.3151 46.0242 48.9961C45.7768 48.6738 45.4269 48.5127 44.9744 48.5127C44.5186 48.5127 44.1671 48.6722 43.9197 48.9912C43.6723 49.3102 43.5486 49.7594 43.5486 50.3389C43.5486 50.9215 43.6723 51.3724 43.9197 51.6914C44.1671 52.0104 44.5186 52.1699 44.9744 52.1699ZM48.8799 53V48.5908H48.0059V47.707H48.8799V47.1895C48.8799 46.6589 49.0215 46.2715 49.3047 46.0273C49.5879 45.7799 50.0127 45.6562 50.5791 45.6562C50.7614 45.6562 50.9502 45.6725 51.1455 45.7051V46.5449C51.0088 46.5189 50.8542 46.5059 50.6816 46.5059C50.1706 46.5059 49.915 46.7565 49.915 47.2578V47.707H51.1016V48.5908H49.9297V53H48.8799ZM52.0725 53V47.6826H53.1174V53H52.0725ZM53.0784 46.5693C52.9514 46.6898 52.7903 46.75 52.595 46.75C52.3997 46.75 52.2369 46.6898 52.1067 46.5693C51.9797 46.4456 51.9163 46.2926 51.9163 46.1104C51.9163 45.9281 51.9797 45.7751 52.1067 45.6514C52.2369 45.5277 52.3997 45.4658 52.595 45.4658C52.7903 45.4658 52.9514 45.5277 53.0784 45.6514C53.2086 45.7751 53.2737 45.9281 53.2737 46.1104C53.2737 46.2926 53.2086 46.4456 53.0784 46.5693ZM54.4692 53V45.6074H55.519V53H54.4692ZM59.9714 48.8496C59.737 48.599 59.4262 48.4736 59.0388 48.4736C58.6514 48.4736 58.3324 48.599 58.0818 48.8496C57.8311 49.1003 57.6911 49.4339 57.6618 49.8506H60.3474C60.3344 49.4307 60.209 49.097 59.9714 48.8496ZM60.3425 51.5645H61.3532C61.2328 52.043 60.9691 52.4189 60.5622 52.6924C60.1586 52.9658 59.654 53.1025 59.0486 53.1025C58.2868 53.1025 57.6862 52.8584 57.2468 52.3701C56.8106 51.8786 56.5925 51.208 56.5925 50.3584C56.5925 49.5088 56.8139 48.8333 57.2566 48.332C57.6993 47.8307 58.295 47.5801 59.0437 47.5801C59.7826 47.5801 60.362 47.8177 60.782 48.293C61.2051 48.7682 61.4167 49.4242 61.4167 50.2607V50.627H57.6618V50.6855C57.6781 51.1543 57.8132 51.5254 58.0671 51.7988C58.321 52.0723 58.6579 52.209 59.0779 52.209C59.7191 52.209 60.1407 51.9941 60.3425 51.5645Z" fill="#686868"/>
</svg>
